<svg height="512pt" viewBox="0 0 512 512" width="512pt" xmlns="http://www.w3.org/2000/svg" xmlns:xlink="http://www.w3.org/1999/xlink"><linearGradient id="a" gradientUnits="userSpaceOnUse" x1="74.9807" x2="437.0193" y1="74.9807" y2="437.0193"><stop offset="0" stop-color="#ffd460"/><stop offset="1" stop-color="#ffa418"/></linearGradient><linearGradient id="b" gradientUnits="userSpaceOnUse" x1="286.9909" x2="384.331" y1="204.3298" y2="301.6699"><stop offset="0" stop-color="#3897ff"/><stop offset="1" stop-color="#446080"/></linearGradient><linearGradient id="c" gradientUnits="userSpaceOnUse" x1="107.7838" x2="326.9141" y1="143.4346" y2="362.5649"><stop offset="0" stop-color="#466289"/><stop offset="1" stop-color="#263648"/></linearGradient><path d="m512 256c0 141.386719-114.613281 256-256 256s-256-114.613281-256-256 114.613281-256 256-256 256 114.613281 256 256zm0 0" fill="url(#a)"/><path d="m370.390625 232.128906h-111.199219v41.738282h111.199219v41.742187l62.609375-62.609375-62.609375-62.609375zm0 0" fill="url(#b)"/><path d="m273 179.957031h48.695312v-41.738281h-208.695312v229.5625h208.695312v-41.738281h-166.957031v-146.085938zm0 0" fill="url(#c)"/></svg>